<?xml version="1.0" standalone="no"?>
<!DOCTYPE svg PUBLIC "-//W3C//DTD SVG 20010904//EN"
 "http://www.w3.org/TR/2001/REC-SVG-20010904/DTD/svg10.dtd">
<svg version="1.0" xmlns="http://www.w3.org/2000/svg"
 width="500.000000pt" height="500.000000pt" viewBox="0 0 500.000000 500.000000"
 preserveAspectRatio="xMidYMid meet">

<g transform="translate(0.000000,500.000000) scale(0.100000,-0.100000)"
fill="#000000" stroke="none">
<path d="M2157 4663 c-4 -3 -7 -30 -7 -60 l0 -53 -285 0 -285 0 0 -55 0 -55
-110 0 -110 0 0 -55 0 -55 -55 0 -54 0 -3 -57 -3 -58 -57 -3 -58 -3 0 -454 0
-455 60 0 60 0 0 -176 0 -176 110 7 110 7 0 -171 0 -171 55 0 54 0 3 -57 3
-58 342 -3 342 -2 3 57 3 58 52 3 53 3 2 167 3 167 55 0 55 0 3 -167 2 -168
55 0 55 0 0 -60 0 -60 340 0 339 0 3 58 3 57 58 3 57 3 0 171 0 170 110 -7
110 -7 0 515 0 516 -52 3 -53 3 -5 55 -5 55 -52 3 -52 3 -3 112 -3 112 -57 3
-58 3 0 54 0 55 -54 0 -55 0 -3 53 -3 52 -167 3 -167 2 -3 58 -3 57 -336 3
c-184 1 -338 -1 -342 -5z m341 -745 l3 -58 109 0 109 0 3 58 3 57 110 0 110 0
3 -57 3 -58 54 0 55 0 0 -55 0 -55 55 0 55 0 0 -55 0 -55 55 0 55 0 0 -55 0
-54 58 -3 57 -3 5 -55 5 -55 53 -3 52 -3 0 -165 0 -164 -110 0 -110 0 0 55 0
55 -340 0 -340 0 0 -55 0 -55 -170 0 -170 0 0 55 0 55 -342 -2 -343 -3 -3 -52
-3 -53 -110 0 -109 0 2 223 3 222 53 3 52 3 0 110 0 109 170 0 170 0 0 55 0
55 230 0 230 0 0 60 0 61 113 -3 112 -3 3 -57z m-346 -900 l3 -53 55 -5 55 -5
0 -110 0 -110 -55 -5 -55 -5 -3 -52 -3 -53 -225 0 -224 0 0 55 0 55 -55 0 -55
0 0 115 0 115 55 0 55 0 0 55 0 55 224 0 225 0 3 -52z m1020 0 l3 -53 55 -5
55 -5 0 -110 0 -110 -57 -3 -58 -3 0 -54 0 -55 -225 0 -225 0 0 55 0 55 -55 0
-55 0 0 115 0 115 55 0 55 0 0 55 0 55 224 0 225 0 3 -52z"/>
<path d="M1810 2850 l0 -121 118 3 117 3 3 104 c2 67 -1 108 -9 117 -8 10 -39
14 -120 14 l-109 0 0 -120z"/>
<path d="M2837 2963 c-4 -3 -7 -57 -7 -120 l0 -113 115 0 115 0 0 120 0 120
-108 0 c-60 0 -112 -3 -115 -7z"/>
<path d="M907 913 c-4 -3 -7 -30 -7 -60 l0 -53 -55 0 -55 0 0 -55 0 -54 -57
-3 -58 -3 -3 -342 -2 -343 740 0 740 0 0 169 0 170 -52 3 -53 3 -5 115 -5 115
-57 3 -58 3 0 169 0 170 -503 0 c-277 0 -507 -3 -510 -7z"/>
<path d="M2957 913 c-4 -3 -7 -80 -7 -169 l0 -163 -52 -3 -53 -3 -2 -95 c-4
-142 -3 -140 -68 -140 l-55 0 0 -170 0 -170 740 0 740 0 0 345 0 345 -54 0
-55 0 -3 53 -3 52 -57 3 -58 3 0 59 0 60 -503 0 c-277 0 -507 -3 -510 -7z"/>
<path d="M2160 636 l0 -55 53 -3 52 -3 5 -55 5 -55 53 -3 52 -3 0 -60 0 -59
-55 0 -55 0 0 -170 0 -170 170 0 170 0 0 170 0 170 -55 0 -55 0 0 60 0 60 55
0 55 0 0 60 0 60 55 0 55 0 0 55 0 55 -280 0 -280 0 0 -54z"/>
</g>
</svg>
